<svg width="31" height="41" viewBox="0 0 31 41" fill="none" xmlns="http://www.w3.org/2000/svg">
<path d="M15.992 11.6235C13.0851 11.6235 9.00558 12.915 7.58288 13.4931V4.14919C7.58288 2.55839 6.75058 0.409986 4.77848 0.409986C1.75678 0.364886 1.03928 2.55839 1.03928 4.14919V23.7718C1.01058 24.1326 0.944979 26.9206 1.03928 27.511C0.903979 34.6819 8.23478 40.59 15.0572 40.59C22.5356 40.59 30.0058 35.4691 30.0058 25.6414C30.0058 18.0687 23.4704 11.6235 15.992 11.6235ZM15.0572 34.0505C10.7481 34.0505 7.64438 30.1596 7.64438 25.7972C7.64438 21.4348 11.1376 17.9006 15.4426 17.9006C19.7476 17.9006 23.4663 21.279 23.4663 25.6414C23.4663 31.2584 19.3663 34.0505 15.0572 34.0505Z" fill="white"/>
</svg>
